<svg xmlns="http://www.w3.org/2000/svg" xmlns:xlink="http://www.w3.org/1999/xlink" width="500" zoomAndPan="magnify" viewBox="0 0 375 374.999991" height="500" preserveAspectRatio="xMidYMid meet" version="1.0"><defs><g/><clipPath id="8324957569"><path d="M 43.5 140 L 331.5 140 L 331.5 214 L 43.5 214 Z M 43.5 140 " clip-rule="nonzero"/></clipPath><clipPath id="c184493316"><path d="M 267 82.25 L 317 82.25 L 317 132 L 267 132 Z M 267 82.25 " clip-rule="nonzero"/></clipPath></defs><rect x="-37.5" width="450" fill="#ffffff" y="-37.499999" height="449.999989" fill-opacity="1"/><rect x="-37.5" width="450" fill="#231f20" y="-37.499999" height="449.999989" fill-opacity="1"/><path fill="#ffffff" d="M 84.726562 168.953125 C 84.636719 170.960938 84.582031 172.984375 84.609375 175.007812 C 84.175781 175.832031 83.773438 176.671875 83.410156 177.511719 C 83.726562 174.621094 84.175781 171.757812 84.726562 168.953125 Z M 125.984375 105.5625 C 124.148438 107.613281 122.488281 109.898438 120.972656 112.386719 C 117.523438 114.121094 114.34375 116 111.457031 118.027344 C 115.890625 113.441406 120.757812 109.25 125.984375 105.5625 Z M 258.023438 118.011719 C 255.136719 115.988281 251.945312 114.09375 248.492188 112.371094 C 246.976562 109.855469 245.285156 107.558594 243.4375 105.488281 C 248.175781 108.828125 252.667969 112.589844 256.839844 116.769531 C 257.242188 117.15625 257.632812 117.59375 258.023438 118.011719 Z M 284.871094 174.996094 C 284.914062 172.941406 284.855469 170.917969 284.753906 168.894531 C 285.304688 171.699219 285.722656 174.519531 286.039062 177.382812 C 285.695312 176.585938 285.304688 175.777344 284.871094 174.996094 Z M 284.464844 210.304688 C 284.25 206.445312 283.167969 202.683594 281.261719 199.027344 C 283.167969 192.304688 284.335938 185.464844 284.726562 178.625 C 285.75 181.082031 286.371094 183.585938 286.648438 186.113281 C 286.660156 187.054688 286.703125 188.007812 286.703125 188.960938 C 286.703125 196.222656 285.9375 203.363281 284.464844 210.304688 Z M 254.542969 263.339844 C 254.789062 262.980469 255.003906 262.605469 255.222656 262.226562 C 256.03125 261.621094 256.8125 260.984375 257.605469 260.347656 C 257.34375 260.609375 257.097656 260.898438 256.839844 261.15625 C 256.089844 261.910156 255.308594 262.617188 254.542969 263.339844 Z M 111.816406 260.289062 C 112.613281 260.941406 113.40625 261.59375 114.214844 262.199219 C 114.429688 262.574219 114.664062 262.949219 114.90625 263.328125 C 114.140625 262.605469 113.375 261.894531 112.625 261.15625 C 112.351562 260.867188 112.089844 260.578125 111.816406 260.289062 Z M 94.847656 164.902344 C 94.933594 171.554688 95.773438 178.378906 97.417969 185.347656 C 97.550781 185.867188 97.679688 186.390625 97.808594 186.910156 C 96.882812 187.71875 96.003906 188.542969 95.167969 189.382812 C 92.625 191.925781 90.53125 194.558594 88.914062 197.234375 C 87.078125 190.367188 86.039062 183.394531 85.808594 176.414062 C 87.871094 172.363281 90.921875 168.503906 94.847656 164.902344 Z M 89.214844 153.21875 C 91.195312 149.402344 94.070312 145.789062 97.722656 142.433594 C 95.886719 148.910156 94.921875 155.691406 94.832031 162.675781 C 93.835938 163.542969 92.882812 164.425781 91.988281 165.308594 C 89.476562 167.835938 87.410156 170.410156 85.75 173.058594 C 85.765625 169.066406 86.054688 165.089844 86.601562 161.144531 C 87.367188 158.453125 88.25 155.808594 89.214844 153.21875 Z M 104.769531 125.6875 C 104.078125 126.890625 103.414062 128.117188 102.792969 129.363281 C 102.011719 130.042969 101.261719 130.707031 100.554688 131.414062 C 101.894531 129.449219 103.296875 127.523438 104.769531 125.6875 Z M 117.160156 119.949219 C 112.582031 122.277344 108.511719 124.820312 105 127.554688 C 106.113281 125.515625 107.339844 123.519531 108.65625 121.566406 C 111.917969 118.894531 115.703125 116.421875 119.90625 114.207031 C 118.90625 116.03125 117.984375 117.9375 117.160156 119.949219 Z M 139.011719 106.574219 C 138.144531 108.382812 137.363281 110.320312 136.671875 112.359375 C 133.753906 113.210938 130.921875 114.152344 128.179688 115.164062 C 124.828125 116.421875 121.695312 117.75 118.75 119.183594 C 119.660156 117.085938 120.667969 115.105469 121.78125 113.238281 C 126.964844 110.664062 132.757812 108.425781 139.011719 106.574219 Z M 131.082031 102.164062 C 132.570312 101.238281 134.070312 100.355469 135.601562 99.519531 C 139.023438 97.941406 142.738281 96.539062 146.664062 95.339844 C 143.949219 98.113281 141.625 101.398438 139.675781 105.199219 C 133.636719 106.949219 127.992188 109.046875 122.894531 111.445312 C 125.246094 107.859375 127.992188 104.753906 131.082031 102.164062 Z M 148.441406 93.632812 C 148.179688 93.691406 147.921875 93.761719 147.660156 93.851562 C 147.980469 93.71875 148.296875 93.605469 148.613281 93.488281 C 148.554688 93.53125 148.5 93.574219 148.441406 93.632812 Z M 165.902344 90.046875 C 160.671875 90.726562 155.632812 91.710938 150.851562 92.96875 C 150.882812 92.867188 150.894531 92.75 150.882812 92.648438 C 156.167969 90.785156 161.640625 89.339844 167.289062 88.371094 C 166.796875 88.875 166.335938 89.441406 165.902344 90.046875 Z M 218.628906 92.9375 C 213.847656 91.679688 208.808594 90.699219 203.566406 90.019531 C 203.144531 89.425781 202.699219 88.875 202.222656 88.371094 C 207.808594 89.339844 213.296875 90.742188 218.613281 92.605469 C 218.582031 92.722656 218.582031 92.824219 218.628906 92.9375 Z M 220.980469 93.574219 C 220.9375 93.53125 220.878906 93.488281 220.824219 93.429688 C 221.140625 93.558594 221.472656 93.675781 221.789062 93.804688 C 221.53125 93.734375 221.253906 93.648438 220.980469 93.574219 Z M 250.730469 119.152344 C 247.785156 117.738281 244.652344 116.390625 241.316406 115.148438 C 238.554688 114.136719 235.726562 113.195312 232.824219 112.34375 C 232.128906 110.304688 231.335938 108.382812 230.46875 106.546875 C 236.722656 108.410156 242.511719 110.636719 247.683594 113.226562 C 248.808594 115.089844 249.820312 117.070312 250.730469 119.152344 Z M 260.796875 121.523438 C 262.125 123.476562 263.351562 125.472656 264.464844 127.511719 C 260.957031 124.792969 256.898438 122.246094 252.320312 119.933594 C 251.496094 117.925781 250.570312 116 249.5625 114.179688 C 253.761719 116.40625 257.53125 118.851562 260.796875 121.523438 Z M 266.660156 129.316406 C 266.039062 128.046875 265.359375 126.800781 264.652344 125.558594 C 266.167969 127.480469 267.628906 129.433594 269 131.429688 C 268.25 130.722656 267.46875 129.996094 266.660156 129.316406 Z M 277.519531 165.308594 C 276.609375 164.410156 275.65625 163.542969 274.660156 162.660156 C 274.558594 155.605469 273.578125 148.765625 271.714844 142.230469 C 275.367188 145.613281 278.242188 149.257812 280.25 153.117188 C 281.246094 155.777344 282.125 158.484375 282.890625 161.230469 C 283.441406 165.148438 283.714844 169.082031 283.730469 173.042969 C 282.082031 170.398438 280.019531 167.824219 277.519531 165.308594 Z M 273.996094 189.382812 C 273.246094 188.617188 272.4375 187.878906 271.613281 187.15625 C 271.773438 186.546875 271.929688 185.941406 272.0625 185.347656 C 273.722656 178.378906 274.558594 171.554688 274.632812 164.917969 C 275.210938 165.4375 275.773438 165.972656 276.308594 166.523438 C 279.5 169.703125 281.953125 173.015625 283.6875 176.398438 C 283.457031 183.496094 282.371094 190.609375 280.464844 197.609375 C 278.820312 194.789062 276.652344 192.042969 273.996094 189.382812 Z M 276.261719 209.84375 C 274.703125 207.210938 272.667969 204.664062 270.199219 202.179688 C 269.359375 201.355469 268.492188 200.558594 267.585938 199.75 C 269.027344 195.976562 270.285156 192.1875 271.308594 188.382812 C 271.945312 188.976562 272.582031 189.570312 273.203125 190.175781 C 276.105469 193.082031 278.386719 196.089844 280.046875 199.15625 C 279.007812 202.757812 277.738281 206.328125 276.261719 209.84375 Z M 283.296875 213.804688 C 282.328125 216.40625 281.273438 218.894531 280.132812 221.292969 C 279.800781 217.808594 278.746094 214.398438 276.957031 211.070312 C 278.445312 207.628906 279.730469 204.160156 280.796875 200.632812 C 282.515625 204.261719 283.382812 207.992188 283.382812 211.792969 C 283.382812 212.460938 283.355469 213.140625 283.296875 213.804688 Z M 280.234375 223.652344 C 280.753906 222.636719 281.246094 221.597656 281.738281 220.542969 C 281.246094 222.03125 280.742188 223.492188 280.191406 224.964844 C 280.21875 224.519531 280.234375 224.097656 280.234375 223.652344 Z M 235.8125 271.597656 C 236.507812 269.949219 236.867188 268.273438 236.925781 266.535156 C 243.554688 263.082031 250.441406 258.640625 256.984375 253.046875 C 256.796875 255.894531 255.902344 258.714844 254.371094 261.445312 C 248.621094 265.683594 242.269531 269.039062 235.8125 271.597656 Z M 225.921875 282.382812 C 225.832031 282.414062 225.746094 282.457031 225.660156 282.472656 C 227.148438 281.515625 228.519531 280.535156 229.746094 279.476562 C 231.839844 278.855469 233.921875 278.105469 235.941406 277.28125 C 232.691406 279.160156 229.355469 280.867188 225.921875 282.382812 Z M 139.617188 279.433594 C 140.800781 280.476562 142.128906 281.457031 143.574219 282.382812 C 143.546875 282.382812 143.515625 282.371094 143.488281 282.355469 C 140.078125 280.851562 136.730469 279.144531 133.492188 277.25 C 135.488281 278.074219 137.539062 278.8125 139.617188 279.433594 Z M 112.496094 253.046875 C 119.039062 258.628906 125.925781 263.066406 132.554688 266.523438 C 132.597656 268.242188 132.960938 269.933594 133.636719 271.582031 C 127.199219 269.007812 120.84375 265.667969 115.09375 261.433594 C 113.566406 258.699219 112.667969 255.878906 112.496094 253.046875 Z M 89.230469 223.605469 C 89.230469 224.054688 89.257812 224.488281 89.273438 224.953125 C 88.710938 223.449219 88.191406 221.945312 87.699219 220.425781 C 88.191406 221.511719 88.695312 222.582031 89.230469 223.605469 Z M 101.894531 199.734375 C 100.984375 200.542969 100.105469 201.339844 99.28125 202.179688 C 96.796875 204.652344 94.789062 207.210938 93.230469 209.8125 C 91.699219 206.183594 90.398438 202.496094 89.332031 198.765625 C 91.425781 195.019531 94.402344 191.464844 98.125 188.136719 C 99.152344 192.015625 100.421875 195.890625 101.894531 199.734375 Z M 114.199219 177.496094 C 115.007812 181.558594 115.992188 185.652344 117.144531 189.730469 C 111.703125 192.460938 106.878906 195.554688 102.820312 198.953125 C 101.347656 195.078125 100.089844 191.191406 99.078125 187.316406 C 103.28125 183.714844 108.367188 180.433594 114.199219 177.496094 Z M 113.59375 131.644531 C 112.410156 137.113281 111.703125 143.011719 111.570312 149.328125 C 111.542969 150.125 111.558594 150.921875 111.558594 151.714844 C 105.652344 154.664062 100.410156 158.003906 96.003906 161.679688 C 96.191406 154.507812 97.304688 147.582031 99.355469 140.972656 C 103.355469 137.574219 108.148438 134.453125 113.59375 131.644531 Z M 113.925781 130.113281 C 108.625 132.804688 103.945312 135.765625 99.988281 138.949219 C 101.042969 135.898438 102.285156 132.917969 103.730469 130.011719 C 107.371094 126.890625 111.703125 124.027344 116.597656 121.453125 C 115.558594 124.183594 114.648438 127.078125 113.925781 130.113281 Z M 134.085938 122.277344 C 129.941406 123.492188 125.957031 124.863281 122.199219 126.367188 C 119.789062 127.351562 117.476562 128.378906 115.269531 129.449219 C 116.046875 126.367188 116.988281 123.417969 118.097656 120.671875 C 123.53125 117.9375 129.636719 115.566406 136.238281 113.601562 C 135.386719 116.304688 134.648438 119.195312 134.085938 122.277344 Z M 159.429688 108.640625 C 158.984375 111.359375 158.609375 114.207031 158.332031 117.144531 C 150.289062 118.257812 142.550781 119.847656 135.300781 121.914062 C 135.90625 118.804688 136.65625 115.914062 137.566406 113.210938 C 144.382812 111.246094 151.71875 109.710938 159.429688 108.640625 Z M 160.816406 101.933594 C 160.371094 103.695312 159.980469 105.546875 159.617188 107.5 C 152.09375 108.527344 144.832031 110.015625 138 111.953125 C 138.734375 109.898438 139.546875 107.960938 140.453125 106.140625 C 146.824219 104.332031 153.667969 102.914062 160.816406 101.933594 Z M 184.167969 99.199219 C 176.675781 99.214844 169.324219 99.691406 162.289062 100.585938 C 163.402344 96.757812 164.804688 93.53125 166.480469 91.117188 C 172.210938 90.363281 178.132812 89.976562 184.167969 89.945312 Z M 207.203125 100.585938 C 200.15625 99.691406 192.804688 99.214844 185.296875 99.199219 L 185.296875 89.945312 C 191.363281 89.960938 197.28125 90.351562 202.972656 91.074219 C 204.675781 93.503906 206.0625 96.726562 207.203125 100.585938 Z M 209.859375 107.484375 C 209.515625 105.546875 209.125 103.683594 208.664062 101.917969 C 215.824219 102.902344 222.65625 104.316406 229.023438 106.125 C 229.933594 107.949219 230.757812 109.898438 231.496094 111.953125 C 224.648438 110 217.398438 108.511719 209.859375 107.484375 Z M 234.179688 121.871094 C 226.988281 119.832031 219.261719 118.226562 211.160156 117.113281 C 210.871094 114.179688 210.511719 111.34375 210.050781 108.640625 C 217.773438 109.695312 225.113281 111.246094 231.929688 113.195312 C 232.824219 115.898438 233.574219 118.777344 234.179688 121.871094 Z M 254.210938 129.375 C 248.535156 126.628906 242.226562 124.230469 235.394531 122.234375 C 234.816406 119.152344 234.109375 116.289062 233.242188 113.585938 C 239.855469 115.566406 245.949219 117.925781 251.378906 120.644531 C 252.492188 123.390625 253.429688 126.3125 254.210938 129.375 Z M 255.554688 130.027344 C 254.816406 127.003906 253.921875 124.140625 252.882812 121.4375 C 257.777344 123.996094 262.097656 126.859375 265.734375 129.984375 C 267.164062 132.847656 268.421875 135.808594 269.460938 138.832031 C 265.476562 135.636719 260.796875 132.671875 255.554688 130.027344 Z M 257.9375 151.703125 C 257.9375 150.921875 257.9375 150.125 257.921875 149.328125 C 257.777344 142.9375 257.070312 136.953125 255.859375 131.429688 C 261.289062 134.21875 266.082031 137.359375 270.066406 140.769531 C 272.148438 147.449219 273.304688 154.433594 273.492188 161.664062 C 269.070312 158.003906 263.84375 154.664062 257.9375 151.703125 Z M 252.332031 189.730469 C 253.488281 185.695312 254.457031 181.660156 255.25 177.65625 C 261.101562 180.621094 266.167969 183.929688 270.34375 187.546875 C 269.347656 191.347656 268.117188 195.179688 266.675781 198.96875 C 262.601562 195.554688 257.777344 192.476562 252.332031 189.730469 Z M 261.765625 210.1875 C 257.980469 207.023438 253.503906 204.144531 248.449219 201.601562 C 249.777344 198.027344 250.960938 194.441406 252.015625 190.828125 C 257.445312 193.574219 262.226562 196.667969 266.242188 200.082031 C 264.914062 203.480469 263.425781 206.847656 261.765625 210.1875 Z M 270.933594 220.671875 C 269.445312 218.128906 267.496094 215.640625 265.085938 213.210938 C 264.320312 212.445312 263.484375 211.691406 262.644531 210.957031 C 264.320312 207.628906 265.808594 204.261719 267.152344 200.878906 C 267.917969 201.570312 268.683594 202.265625 269.390625 202.972656 C 272.03125 205.632812 274.125 208.351562 275.699219 211.15625 C 274.285156 214.367188 272.710938 217.550781 270.933594 220.671875 Z M 212.144531 274.402344 C 212.054688 273.550781 211.824219 272.695312 211.449219 271.859375 C 219.652344 268.691406 227.320312 264.832031 234.382812 260.320312 C 235.277344 262.113281 235.742188 263.964844 235.785156 265.855469 C 226.917969 270.410156 218.539062 273.160156 212.144531 274.402344 Z M 211.722656 277.773438 C 211.984375 277.0625 212.128906 276.3125 212.171875 275.558594 C 218.539062 274.316406 226.875 271.625 235.753906 267.128906 C 235.625 268.835938 235.148438 270.527344 234.339844 272.160156 C 226.554688 275.097656 218.726562 276.933594 211.722656 277.773438 Z M 205.976562 284.191406 C 206.972656 283.570312 207.867188 282.890625 208.648438 282.183594 C 214.484375 282.570312 220.808594 281.863281 227.046875 280.246094 C 225.34375 281.488281 223.40625 282.660156 221.3125 283.714844 C 216.488281 284.886719 212.605469 284.914062 205.976562 284.191406 Z M 171.011719 287.417969 C 175.101562 288.601562 179.808594 289.28125 184.734375 289.28125 C 187.171875 289.28125 189.527344 289.121094 191.765625 288.832031 C 192.515625 289.570312 193.296875 290.179688 194.089844 290.625 C 191 290.902344 187.882812 291.058594 184.734375 291.058594 C 177.828125 291.058594 171.027344 290.367188 164.398438 289.035156 C 166.710938 288.832031 168.847656 288.296875 171.011719 287.417969 Z M 160.875 282.183594 C 161.65625 282.890625 162.550781 283.570312 163.546875 284.191406 C 156.875 284.914062 152.988281 284.886719 148.136719 283.699219 C 146.042969 282.644531 144.121094 281.488281 142.417969 280.230469 C 148.671875 281.863281 155.027344 282.570312 160.875 282.183594 Z M 157.308594 275.558594 C 157.351562 276.296875 157.496094 277.046875 157.757812 277.773438 C 150.75 276.917969 142.910156 275.097656 135.125 272.148438 C 134.316406 270.511719 133.839844 268.835938 133.726562 267.128906 C 142.59375 271.613281 150.925781 274.316406 157.308594 275.558594 Z M 135.082031 260.289062 C 142.160156 264.832031 149.828125 268.691406 158.03125 271.84375 C 157.640625 272.683594 157.410156 273.535156 157.324219 274.402344 C 150.925781 273.144531 142.5625 270.398438 133.683594 265.84375 C 133.726562 263.933594 134.214844 262.082031 135.082031 260.289062 Z M 97.910156 221.800781 C 96.25 224.921875 95.28125 228.132812 95.023438 231.429688 C 93.359375 228.855469 91.800781 226.195312 90.371094 223.363281 C 90.414062 219.601562 91.351562 215.945312 93.101562 212.429688 C 94.53125 215.609375 96.132812 218.734375 97.910156 221.800781 Z M 106.847656 210.941406 C 105.984375 211.691406 105.160156 212.445312 104.378906 213.210938 C 101.984375 215.625 100.03125 218.113281 98.546875 220.65625 C 96.785156 217.535156 95.195312 214.367188 93.792969 211.15625 C 95.816406 207.527344 98.703125 204.085938 102.328125 200.878906 C 103.671875 204.246094 105.175781 207.617188 106.847656 210.941406 Z M 121.046875 201.585938 C 115.976562 204.128906 111.5 207.007812 107.714844 210.175781 C 106.054688 206.847656 104.566406 203.464844 103.238281 200.082031 C 107.210938 196.726562 112.003906 193.632812 117.476562 190.871094 C 118.53125 194.457031 119.714844 198.042969 121.046875 201.585938 Z M 137.132812 183.28125 C 137.914062 186.9375 138.792969 190.640625 139.777344 194.355469 C 133.335938 196.222656 127.398438 198.476562 122.054688 201.078125 C 120.742188 197.523438 119.558594 193.953125 118.503906 190.367188 C 124.078125 187.648438 130.347656 185.261719 137.132812 183.28125 Z M 134.589844 169.601562 C 135.226562 173.707031 135.976562 177.886719 136.875 182.125 C 130.101562 184.089844 123.816406 186.460938 118.1875 189.222656 C 117.03125 185.132812 116.046875 181.039062 115.238281 176.976562 C 121.046875 174.140625 127.542969 171.65625 134.589844 169.601562 Z M 132.410156 145.46875 C 132.554688 152.699219 133.234375 160.40625 134.417969 168.429688 C 127.386719 170.46875 120.871094 172.925781 115.007812 175.789062 C 113.535156 168.039062 112.757812 160.40625 112.667969 153.074219 C 118.574219 150.152344 125.203125 147.609375 132.410156 145.46875 Z M 132.800781 131.804688 C 132.46875 135.578125 132.339844 139.554688 132.367188 143.675781 C 125.261719 145.757812 118.648438 148.273438 112.683594 151.152344 C 112.683594 150.558594 112.683594 149.953125 112.699219 149.359375 C 112.84375 142.78125 113.59375 136.621094 114.894531 130.980469 C 120.597656 128.160156 126.953125 125.675781 133.855469 123.59375 C 133.40625 126.210938 133.046875 128.929688 132.800781 131.804688 Z M 157.480469 138.414062 C 149.046875 139.554688 141.003906 141.21875 133.492188 143.34375 C 133.464844 139.425781 133.609375 135.59375 133.925781 131.890625 C 134.1875 128.871094 134.578125 125.976562 135.054688 123.261719 C 142.289062 121.132812 150.074219 119.472656 158.21875 118.328125 C 157.65625 124.808594 157.4375 131.691406 157.480469 138.414062 Z M 184.167969 116.476562 L 184.167969 136.621094 C 175.332031 136.648438 166.695312 137.226562 158.40625 138.296875 C 158.390625 131.125 158.652344 124.34375 159.214844 118.183594 C 167.242188 117.113281 175.605469 116.523438 184.167969 116.476562 Z M 184.167969 106.949219 L 184.167969 115.351562 C 175.75 115.378906 167.402344 115.945312 159.328125 117 C 159.632812 114.019531 160.007812 111.15625 160.484375 108.511719 C 168.066406 107.515625 176.011719 106.980469 184.167969 106.949219 Z M 184.167969 105.808594 C 176.140625 105.835938 168.285156 106.355469 160.6875 107.339844 C 161.0625 105.386719 161.480469 103.523438 161.945312 101.789062 C 169.09375 100.847656 176.542969 100.355469 184.167969 100.328125 Z M 185.296875 105.808594 L 185.296875 100.328125 C 192.9375 100.355469 200.386719 100.847656 207.535156 101.773438 C 208.011719 103.507812 208.417969 105.375 208.792969 107.339844 C 201.195312 106.355469 193.324219 105.835938 185.296875 105.808594 Z M 185.296875 115.351562 L 185.296875 106.949219 C 193.46875 106.964844 201.414062 107.5 209.007812 108.496094 C 209.472656 111.15625 209.847656 113.992188 210.148438 116.96875 C 202.191406 115.929688 193.84375 115.378906 185.296875 115.351562 Z M 211.074219 138.296875 C 202.800781 137.214844 194.148438 136.632812 185.296875 136.621094 L 185.296875 116.476562 C 193.902344 116.507812 202.265625 117.085938 210.265625 118.125 C 210.84375 124.300781 211.101562 131.109375 211.074219 138.296875 Z M 235.566406 131.890625 C 235.886719 135.59375 236.015625 139.425781 235.984375 143.34375 C 228.492188 141.21875 220.445312 139.554688 212.011719 138.414062 C 212.042969 131.660156 211.839844 124.761719 211.261719 118.257812 C 219.4375 119.386719 227.191406 121.019531 234.398438 123.085938 C 234.902344 125.878906 235.292969 128.8125 235.566406 131.890625 Z M 237.113281 143.675781 C 237.15625 139.554688 237.011719 135.578125 236.695312 131.804688 C 236.433594 128.882812 236.074219 126.109375 235.609375 123.433594 C 242.511719 125.488281 248.867188 127.945312 254.558594 130.765625 C 255.871094 136.476562 256.636719 142.691406 256.796875 149.359375 C 256.8125 149.953125 256.796875 150.558594 256.8125 151.152344 C 250.847656 148.261719 244.230469 145.757812 237.113281 143.675781 Z M 235.046875 168.53125 C 236.261719 160.449219 236.9375 152.699219 237.082031 145.410156 C 244.246094 147.535156 250.875 150.097656 256.8125 153.046875 C 256.738281 160.421875 255.929688 168.128906 254.457031 175.933594 C 248.609375 173.058594 242.082031 170.585938 235.046875 168.53125 Z M 232.605469 182.136719 C 233.503906 177.929688 234.238281 173.796875 234.875 169.730469 C 235.726562 169.976562 236.59375 170.210938 237.445312 170.46875 C 243.539062 172.390625 249.140625 174.621094 254.210938 177.121094 C 253.417969 181.140625 252.449219 185.1875 251.308594 189.222656 C 245.660156 186.476562 239.394531 184.089844 232.605469 182.136719 Z M 229.71875 194.355469 C 230.699219 190.625 231.582031 186.910156 232.359375 183.238281 C 239.132812 185.1875 245.386719 187.574219 250.992188 190.320312 C 249.9375 193.921875 248.753906 197.523438 247.4375 201.09375 C 242.09375 198.492188 236.144531 196.222656 229.71875 194.355469 Z M 243.597656 210.578125 C 241.316406 215.726562 238.800781 220.699219 236.058594 225.488281 C 231.726562 223.363281 226.902344 221.523438 221.6875 220.007812 C 223.234375 215.828125 224.707031 211.519531 226.078125 207.125 C 227.292969 203.207031 228.417969 199.316406 229.445312 195.46875 C 235.828125 197.304688 241.734375 199.546875 247.046875 202.148438 C 245.964844 204.984375 244.839844 207.804688 243.597656 210.578125 Z M 247.582031 232.804688 C 244.578125 230.300781 241.039062 228.015625 237.070312 225.992188 C 239.8125 221.191406 242.339844 216.203125 244.636719 211.042969 C 245.863281 208.265625 247.003906 205.476562 248.058594 202.65625 C 253.070312 205.199219 257.503906 208.0625 261.230469 211.214844 C 257.460938 218.632812 252.882812 225.878906 247.582031 232.804688 Z M 250.398438 235.363281 C 249.777344 234.742188 249.113281 234.132812 248.433594 233.539062 C 253.734375 226.628906 258.328125 219.398438 262.109375 211.980469 C 262.863281 212.660156 263.597656 213.328125 264.277344 214.019531 C 266.804688 216.550781 268.796875 219.140625 270.269531 221.800781 C 269.878906 222.480469 269.492188 223.160156 269.085938 223.824219 C 265.113281 230.257812 260.492188 236.230469 255.308594 241.695312 C 254.066406 239.511719 252.433594 237.414062 250.398438 235.363281 Z M 231.394531 254.332031 C 231.003906 253.957031 230.585938 253.582031 230.167969 253.21875 C 236.363281 247.710938 242.226562 241.480469 247.523438 234.742188 C 247.597656 234.640625 247.667969 234.523438 247.742188 234.4375 C 248.390625 235 249.011719 235.578125 249.589844 236.15625 C 251.65625 238.226562 253.273438 240.367188 254.484375 242.550781 C 248.636719 248.578125 242.035156 253.972656 234.800781 258.683594 C 233.933594 257.195312 232.792969 255.75 231.394531 254.332031 Z M 209.167969 268.632812 C 209.082031 268.546875 209.007812 268.488281 208.921875 268.417969 C 215.867188 264.613281 222.757812 259.699219 229.3125 253.972656 C 229.761719 254.347656 230.195312 254.738281 230.597656 255.144531 C 231.941406 256.503906 233.027344 257.890625 233.863281 259.308594 C 226.785156 263.832031 219.117188 267.695312 210.914062 270.847656 C 210.453125 270.078125 209.875 269.34375 209.167969 268.632812 Z M 140.136719 253.941406 C 146.707031 259.683594 153.609375 264.597656 160.558594 268.402344 C 160.472656 268.488281 160.382812 268.546875 160.3125 268.632812 C 159.605469 269.34375 159.027344 270.078125 158.550781 270.847656 C 150.347656 267.695312 142.691406 263.820312 135.617188 259.308594 C 136.714844 257.414062 138.246094 255.621094 140.136719 253.941406 Z M 121.722656 234.421875 C 121.8125 234.523438 121.882812 234.640625 121.96875 234.742188 C 127.253906 241.480469 133.117188 247.710938 139.3125 253.207031 C 138.894531 253.582031 138.476562 253.957031 138.070312 254.332031 C 136.671875 255.734375 135.53125 257.195312 134.664062 258.683594 C 127.441406 253.972656 120.84375 248.5625 114.996094 242.550781 C 116.570312 239.6875 118.851562 236.953125 121.722656 234.421875 Z M 121.046875 233.527344 C 120.367188 234.121094 119.703125 234.742188 119.082031 235.363281 C 117.03125 237.402344 115.414062 239.511719 114.171875 241.667969 C 108.972656 236.214844 104.367188 230.257812 100.410156 223.824219 C 99.988281 223.160156 99.613281 222.480469 99.210938 221.800781 C 101.128906 218.328125 103.890625 215.046875 107.371094 211.980469 C 111.167969 219.386719 115.746094 226.613281 121.046875 233.527344 Z M 124.859375 211.042969 C 127.140625 216.191406 129.667969 221.179688 132.410156 225.980469 C 128.4375 228.015625 124.902344 230.300781 121.910156 232.789062 C 116.613281 225.878906 112.019531 218.632812 108.25 211.214844 C 111.945312 208.105469 116.378906 205.242188 121.433594 202.699219 C 122.503906 205.503906 123.644531 208.28125 124.859375 211.042969 Z M 143.414062 207.125 C 144.789062 211.519531 146.261719 215.828125 147.792969 220.007812 C 142.578125 221.511719 137.753906 223.363281 133.421875 225.488281 C 130.691406 220.699219 128.164062 215.726562 125.882812 210.578125 C 124.65625 207.816406 123.53125 205.011719 122.460938 202.179688 C 127.730469 199.621094 133.636719 197.363281 140.066406 195.511719 C 141.089844 199.34375 142.1875 203.234375 143.414062 207.125 Z M 161.308594 191.074219 C 162.449219 199.820312 163.777344 208.351562 165.25 216.347656 C 159.546875 217.128906 154.101562 218.242188 149.003906 219.660156 C 146.128906 211.910156 143.488281 203.652344 141.234375 195.179688 C 147.488281 193.417969 154.21875 192.042969 161.308594 191.074219 Z M 159.835938 178.550781 C 160.226562 182.355469 160.671875 186.171875 161.148438 189.929688 C 154.058594 190.886719 147.269531 192.257812 140.929688 194.039062 C 139.964844 190.378906 139.082031 186.679688 138.289062 182.960938 C 144.988281 181.082031 152.226562 179.578125 159.835938 178.550781 Z M 158.566406 164.585938 C 158.765625 167.230469 158.96875 169.660156 159.171875 171.800781 C 159.328125 173.664062 159.519531 175.542969 159.71875 177.410156 C 152.09375 178.421875 144.816406 179.910156 138.027344 181.804688 C 137.148438 177.625 136.367188 173.449219 135.734375 169.269531 C 142.835938 167.257812 150.507812 165.683594 158.566406 164.585938 Z M 158.492188 163.457031 C 150.433594 164.527344 142.738281 166.089844 135.558594 168.113281 C 134.375 160.304688 133.652344 152.570312 133.523438 145.136719 C 140.960938 142.996094 149.003906 141.304688 157.496094 140.148438 C 157.566406 148.550781 158 156.675781 158.492188 163.457031 Z M 184.167969 161.734375 C 175.679688 161.75 167.375 162.300781 159.402344 163.328125 C 158.824219 155.332031 158.476562 147.480469 158.421875 140.019531 C 166.636719 138.917969 175.273438 138.355469 184.167969 138.328125 Z M 210.078125 163.371094 C 202.121094 162.328125 193.800781 161.765625 185.296875 161.734375 L 185.296875 138.328125 C 194.148438 138.339844 202.800781 138.917969 211.074219 140.003906 C 211.015625 147.480469 210.667969 155.34375 210.078125 163.371094 Z M 211.003906 163.484375 C 211.492188 156.691406 211.910156 148.5625 212 140.121094 C 220.433594 141.261719 228.476562 142.9375 235.972656 145.09375 C 235.828125 152.554688 235.105469 160.347656 233.921875 168.199219 C 226.757812 166.160156 219.058594 164.570312 211.003906 163.484375 Z M 209.773438 177.410156 C 209.960938 175.542969 210.148438 173.664062 210.324219 171.800781 C 210.511719 169.675781 210.714844 167.273438 210.914062 164.640625 C 218.871094 165.726562 226.542969 167.332031 233.746094 169.398438 C 233.097656 173.535156 232.332031 177.671875 231.453125 181.804688 C 224.664062 179.910156 217.386719 178.421875 209.773438 177.410156 Z M 208.332031 189.929688 C 208.808594 186.15625 209.253906 182.355469 209.660156 178.523438 C 217.226562 179.550781 224.476562 181.011719 231.21875 182.90625 C 230.410156 186.648438 229.53125 190.367188 228.5625 194.039062 C 222.207031 192.257812 215.4375 190.886719 208.332031 189.929688 Z M 204.230469 216.347656 C 205.703125 208.339844 207.046875 199.808594 208.1875 191.058594 C 215.234375 192.015625 221.976562 193.371094 228.273438 195.136719 C 226.007812 203.625 223.347656 211.910156 220.488281 219.675781 C 215.390625 218.242188 209.933594 217.128906 204.230469 216.347656 Z M 210.324219 243.230469 C 206.726562 242.230469 202.886719 241.421875 198.871094 240.855469 C 200.691406 233.972656 202.4375 226.035156 204.042969 217.460938 C 209.671875 218.226562 215.058594 219.328125 220.101562 220.730469 C 217.023438 228.972656 213.6875 236.589844 210.324219 243.230469 Z M 221.054688 247.261719 C 218.152344 245.84375 214.960938 244.617188 211.507812 243.574219 C 214.914062 236.867188 218.238281 229.246094 221.300781 221.0625 C 226.453125 222.550781 231.234375 224.375 235.507812 226.46875 C 231.207031 233.902344 226.351562 240.855469 221.054688 247.261719 Z M 222.078125 247.78125 C 227.363281 241.378906 232.214844 234.410156 236.519531 226.976562 C 240.449219 228.972656 243.929688 231.242188 246.890625 233.699219 C 246.800781 233.816406 246.714844 233.917969 246.628906 234.03125 C 241.34375 240.769531 235.480469 246.988281 229.3125 252.46875 C 227.234375 250.746094 224.808594 249.171875 222.078125 247.78125 Z M 210.988281 244.601562 C 214.351562 245.601562 217.484375 246.769531 220.300781 248.128906 C 215.148438 254.261719 209.558594 259.871094 203.609375 264.832031 C 202.25 264.179688 200.761719 263.585938 199.175781 263.09375 C 203.03125 258.554688 207.058594 252.191406 210.988281 244.601562 Z M 198.582031 241.96875 C 202.511719 242.503906 206.28125 243.285156 209.804688 244.269531 C 205.804688 252.035156 201.757812 258.382812 197.988281 262.75 C 196.011719 262.199219 193.902344 261.765625 191.707031 261.476562 C 193.976562 257.09375 196.316406 250.34375 198.582031 241.96875 Z M 185.296875 241.046875 C 189.5 241.058594 193.601562 241.335938 197.542969 241.824219 C 195.246094 250.210938 192.847656 256.964844 190.496094 261.332031 C 188.820312 261.144531 187.074219 261.042969 185.296875 261.027344 Z M 178.984375 261.332031 C 176.632812 256.964844 174.234375 250.210938 171.953125 241.824219 C 175.851562 241.320312 179.953125 241.058594 184.167969 241.03125 L 184.167969 261.027344 C 182.40625 261.042969 180.660156 261.144531 178.984375 261.332031 Z M 171.503906 262.75 C 167.734375 258.382812 163.691406 252.035156 159.691406 244.269531 C 163.199219 243.300781 166.957031 242.519531 170.914062 241.96875 C 173.164062 250.355469 175.503906 257.09375 177.785156 261.476562 C 175.578125 261.75 173.46875 262.183594 171.503906 262.75 Z M 165.886719 264.832031 C 159.9375 259.871094 154.347656 254.261719 149.175781 248.144531 C 152.007812 246.800781 155.128906 245.613281 158.507812 244.601562 C 162.433594 252.191406 166.464844 258.554688 170.304688 263.082031 C 168.71875 263.585938 167.230469 264.164062 165.886719 264.832031 Z M 147.402344 247.769531 C 144.6875 249.171875 142.246094 250.746094 140.167969 252.453125 C 134 246.972656 128.136719 240.769531 122.863281 234.03125 C 122.765625 233.917969 122.675781 233.800781 122.589844 233.683594 C 125.523438 231.257812 129.015625 229.015625 132.972656 227.003906 C 137.277344 234.421875 142.117188 241.378906 147.402344 247.769531 Z M 157.972656 243.574219 C 154.535156 244.601562 151.328125 245.832031 148.441406 247.25 C 143.140625 240.855469 138.304688 233.917969 134 226.5 C 138.246094 224.417969 143.027344 222.609375 148.195312 221.105469 C 151.257812 229.261719 154.578125 236.882812 157.972656 243.574219 Z M 170.609375 240.855469 C 166.59375 241.421875 162.765625 242.230469 159.171875 243.230469 C 155.804688 236.589844 152.484375 228.972656 149.410156 220.746094 C 154.417969 219.355469 159.792969 218.257812 165.453125 217.476562 C 167.054688 226.035156 168.804688 233.972656 170.609375 240.855469 Z M 184.167969 216.191406 L 184.167969 239.902344 C 179.867188 239.933594 175.679688 240.222656 171.648438 240.726562 C 169.816406 233.84375 168.039062 225.90625 166.421875 217.347656 C 172.097656 216.609375 178.046875 216.21875 184.167969 216.191406 Z M 184.167969 189.511719 L 184.167969 215.0625 C 178.003906 215.078125 171.980469 215.480469 166.21875 216.21875 C 164.714844 208.207031 163.375 199.664062 162.234375 190.945312 C 169.25 190.03125 176.601562 189.542969 184.167969 189.511719 Z M 184.167969 176.890625 L 184.167969 188.382812 C 176.585938 188.398438 169.195312 188.890625 162.089844 189.800781 C 161.597656 186.042969 161.148438 182.238281 160.746094 178.40625 C 168.242188 177.453125 176.082031 176.917969 184.167969 176.890625 Z M 184.167969 175.761719 C 176.097656 175.777344 168.195312 176.296875 160.628906 177.28125 C 160.195312 173 159.804688 168.707031 159.488281 164.46875 C 167.375 163.441406 175.648438 162.894531 184.167969 162.863281 Z M 185.296875 175.761719 L 185.296875 162.878906 C 193.699219 162.90625 201.992188 163.484375 209.992188 164.527344 C 209.6875 168.75 209.296875 173.015625 208.851562 177.28125 C 201.28125 176.296875 193.382812 175.777344 185.296875 175.761719 Z M 185.296875 188.382812 L 185.296875 176.890625 C 193.355469 176.917969 201.210938 177.425781 208.75 178.394531 C 208.34375 182.226562 207.898438 186.042969 207.40625 189.816406 C 200.300781 188.890625 192.890625 188.398438 185.296875 188.382812 Z M 185.296875 215.0625 L 185.296875 189.511719 C 192.835938 189.527344 200.199219 190.019531 207.261719 190.929688 C 206.121094 199.664062 204.761719 208.207031 203.277344 216.234375 C 197.5 215.480469 191.460938 215.078125 185.296875 215.0625 Z M 185.296875 216.191406 C 191.40625 216.21875 197.355469 216.59375 203.074219 217.332031 C 201.457031 225.90625 199.679688 233.84375 197.832031 240.742188 C 193.800781 240.222656 189.597656 239.933594 185.296875 239.902344 Z M 161.4375 267.605469 C 154.507812 263.832031 147.574219 258.945312 141.003906 253.191406 C 143.027344 251.558594 145.421875 250.039062 148.136719 248.664062 C 153.292969 254.796875 158.867188 260.390625 164.789062 265.394531 C 163.546875 266.058594 162.421875 266.796875 161.4375 267.605469 Z M 204.691406 265.394531 C 210.625 260.40625 216.199219 254.796875 221.34375 248.664062 C 224.027344 250.039062 226.410156 251.558594 228.449219 253.234375 C 221.875 258.960938 214.972656 263.847656 208.042969 267.621094 C 207.058594 266.8125 205.949219 266.074219 204.691406 265.394531 Z M 196.503906 290.367188 C 195.363281 290.105469 194.265625 289.511719 193.210938 288.617188 C 195.074219 288.3125 196.835938 287.90625 198.496094 287.429688 C 200.660156 288.296875 202.785156 288.832031 205.066406 289.035156 C 202.25 289.597656 199.375 290.03125 196.503906 290.367188 Z M 207.953125 280.460938 C 203.652344 284.785156 194.523438 287.574219 184.734375 287.574219 C 174.941406 287.574219 165.828125 284.785156 161.511719 280.460938 C 159.835938 278.785156 158.984375 276.992188 158.984375 275.15625 C 158.984375 268.285156 170.535156 262.707031 184.734375 262.707031 C 194.523438 262.707031 203.652344 265.511719 207.953125 269.832031 C 209.644531 271.511719 210.496094 273.304688 210.496094 275.15625 C 210.496094 276.992188 209.644531 278.785156 207.953125 280.460938 Z M 96.0625 233.0625 C 96.121094 229.59375 97 226.222656 98.601562 222.972656 C 98.878906 223.460938 99.152344 223.941406 99.457031 224.429688 C 103.511719 231.023438 108.265625 237.140625 113.609375 242.738281 C 112.324219 245.28125 111.585938 247.898438 111.398438 250.574219 C 105.867188 245.613281 100.625 239.816406 96.0625 233.0625 Z M 112.46875 251.527344 C 112.539062 248.796875 113.21875 246.148438 114.445312 243.605469 C 120.324219 249.589844 126.910156 254.984375 134.128906 259.683594 C 133.21875 261.503906 132.714844 263.371094 132.585938 265.277344 C 125.914062 261.75 119.007812 257.226562 112.46875 251.527344 Z M 138.878906 277.222656 C 137.726562 276.078125 136.785156 274.894531 136.019531 273.695312 C 143.71875 276.484375 151.429688 278.207031 158.304688 278.984375 C 158.695312 279.722656 159.1875 280.417969 159.792969 281.113281 C 153.554688 281.386719 146.765625 280.417969 140.195312 278.453125 C 139.746094 278.046875 139.285156 277.640625 138.878906 277.222656 Z M 155.488281 286.808594 C 154.390625 286.433594 153.308594 286.027344 152.269531 285.609375 C 155.894531 286.011719 159.632812 285.78125 165.238281 285.132812 C 166.480469 285.78125 167.820312 286.359375 169.28125 286.851562 C 166.203125 287.894531 163.128906 288.210938 159.375 287.863281 C 159.359375 287.863281 159.328125 287.863281 159.328125 287.863281 C 158.042969 287.546875 156.757812 287.183594 155.488281 286.808594 Z M 213.976562 286.808594 C 212.707031 287.183594 211.433594 287.53125 210.148438 287.863281 C 210.136719 287.863281 210.136719 287.863281 210.121094 287.863281 C 206.367188 288.210938 203.320312 287.894531 200.257812 286.867188 C 201.714844 286.359375 203.074219 285.78125 204.300781 285.144531 C 209.859375 285.78125 213.585938 286.011719 217.199219 285.609375 C 216.15625 286.027344 215.074219 286.433594 213.976562 286.808594 Z M 229.269531 278.453125 C 222.699219 280.417969 215.925781 281.386719 209.714844 281.113281 C 210.308594 280.417969 210.800781 279.722656 211.203125 278.984375 C 218.050781 278.207031 225.761719 276.5 233.457031 273.707031 C 232.679688 274.894531 231.738281 276.078125 230.597656 277.222656 C 230.179688 277.640625 229.71875 278.046875 229.269531 278.453125 Z M 236.882812 265.292969 C 236.765625 263.371094 236.246094 261.519531 235.335938 259.683594 C 242.570312 254.984375 249.15625 249.605469 255.035156 243.605469 C 256.289062 246.179688 256.941406 248.839844 257 251.542969 C 250.457031 257.226562 243.554688 261.765625 236.882812 265.292969 Z M 258.082031 250.589844 C 257.894531 247.914062 257.15625 245.296875 255.859375 242.75 C 261.230469 237.140625 265.980469 231.023438 270.039062 224.429688 C 270.328125 223.941406 270.601562 223.460938 270.890625 222.972656 C 272.507812 226.253906 273.359375 229.636719 273.402344 233.09375 C 268.839844 239.832031 263.613281 245.628906 258.082031 250.589844 Z M 274.457031 231.457031 C 274.183594 228.160156 273.214844 224.953125 271.585938 221.8125 C 273.347656 218.734375 274.964844 215.609375 276.378906 212.429688 C 278.15625 216 279.066406 219.644531 279.109375 223.390625 C 277.664062 226.210938 276.105469 228.898438 274.457031 231.457031 Z M 270.660156 186.300781 C 266.386719 182.671875 261.273438 179.375 255.511719 176.457031 C 257 168.675781 257.820312 160.984375 257.921875 153.59375 C 263.914062 156.644531 269.160156 160.117188 273.519531 163.917969 C 273.519531 170.789062 272.683594 177.859375 270.964844 185.085938 C 270.875 185.492188 270.761719 185.898438 270.660156 186.300781 Z M 220.433594 94.601562 C 223.507812 97.363281 226.121094 100.761719 228.304688 104.765625 C 222.035156 103.03125 215.335938 101.6875 208.34375 100.746094 C 207.320312 97.058594 206.035156 93.835938 204.445312 91.277344 C 210.035156 92.058594 215.390625 93.171875 220.433594 94.601562 Z M 149.003906 94.644531 C 154.042969 93.214844 159.429688 92.085938 165.035156 91.289062 C 163.445312 93.851562 162.175781 97.074219 161.148438 100.746094 C 154.160156 101.699219 147.460938 103.046875 141.191406 104.765625 C 143.34375 100.804688 145.941406 97.40625 149.003906 94.644531 Z M 98.515625 185.085938 C 96.8125 177.859375 95.976562 170.773438 95.960938 163.90625 C 100.277344 160.160156 105.519531 156.703125 111.558594 153.640625 C 111.671875 160.96875 112.480469 168.574219 113.953125 176.296875 C 108.179688 179.203125 103.066406 182.46875 98.777344 186.085938 C 98.691406 185.753906 98.601562 185.421875 98.515625 185.085938 Z M 85.777344 211.792969 C 85.777344 207.816406 86.746094 203.941406 88.582031 200.242188 C 89.664062 203.886719 90.992188 207.5 92.523438 211.054688 C 90.734375 214.367188 89.679688 217.78125 89.347656 221.25 C 88.046875 218.53125 86.863281 215.699219 85.808594 212.734375 C 85.792969 212.429688 85.777344 212.113281 85.777344 211.792969 Z M 91.121094 229.507812 C 90.820312 228.351562 90.617188 227.191406 90.5 226.023438 C 91.886719 228.582031 93.359375 231.039062 94.921875 233.367188 C 94.921875 233.382812 94.921875 233.394531 94.921875 233.410156 C 94.921875 235.074219 95.109375 236.722656 95.46875 238.355469 C 93.867188 235.476562 92.421875 232.527344 91.121094 229.507812 Z M 102.761719 249.5625 C 102.691406 249.488281 102.617188 249.429688 102.53125 249.402344 C 101 247.320312 99.570312 245.179688 98.214844 242.996094 C 97.027344 240.410156 96.320312 237.761719 96.121094 235.089844 C 100.683594 241.59375 105.867188 247.203125 111.324219 252.003906 C 111.339844 254.652344 111.917969 257.269531 113.03125 259.8125 C 109.246094 256.804688 105.75 253.40625 102.761719 249.5625 Z M 120.554688 268.300781 C 119.066406 266.882812 117.765625 265.421875 116.683594 263.917969 C 122.242188 267.695312 128.25 270.714844 134.332031 273.058594 C 135.167969 274.632812 136.296875 276.152344 137.726562 277.640625 C 133.074219 276.035156 128.613281 273.941406 124.582031 271.425781 C 123.226562 270.410156 121.882812 269.386719 120.554688 268.300781 Z M 248.925781 268.300781 C 247.566406 269.398438 246.183594 270.46875 244.78125 271.496094 C 240.765625 274.011719 236.304688 276.078125 231.683594 277.671875 C 233.097656 276.210938 234.238281 274.664062 235.105469 273.074219 C 241.183594 270.746094 247.191406 267.722656 252.753906 263.949219 C 251.683594 265.4375 250.398438 266.898438 248.925781 268.300781 Z M 266.933594 249.402344 C 266.863281 249.429688 266.789062 249.488281 266.730469 249.5625 C 263.726562 253.421875 260.21875 256.820312 256.433594 259.84375 C 257.546875 257.28125 258.125 254.664062 258.140625 252.019531 C 263.597656 247.21875 268.78125 241.609375 273.347656 235.132812 C 273.144531 237.804688 272.421875 240.4375 271.253906 243.027344 C 269.894531 245.195312 268.464844 247.320312 266.933594 249.402344 Z M 273.996094 238.355469 C 274.355469 236.734375 274.546875 235.074219 274.546875 233.410156 C 276.105469 231.066406 277.578125 228.640625 278.964844 226.066406 C 278.847656 227.222656 278.644531 228.363281 278.359375 229.519531 C 277.042969 232.527344 275.597656 235.492188 273.996094 238.355469 Z M 277.835938 147.234375 C 275.945312 144.773438 273.664062 142.417969 271.078125 140.164062 C 270.183594 137.371094 269.128906 134.625 267.917969 131.949219 C 269.78125 133.742188 271.441406 135.59375 272.855469 137.53125 C 274.703125 140.667969 276.351562 143.921875 277.835938 147.234375 Z M 246.585938 111.433594 C 241.472656 109.015625 235.839844 106.921875 229.804688 105.1875 C 227.839844 101.367188 225.5 98.070312 222.773438 95.265625 C 226.785156 96.511719 230.585938 97.96875 234.109375 99.605469 C 235.480469 100.371094 236.839844 101.152344 238.179688 101.992188 C 241.359375 104.59375 244.175781 107.757812 246.585938 111.433594 Z M 200.171875 88.023438 C 200.820312 88.542969 201.425781 89.136719 202.019531 89.828125 C 196.605469 89.179688 191.015625 88.832031 185.296875 88.804688 L 185.296875 86.878906 C 190.320312 86.894531 195.289062 87.285156 200.171875 88.023438 Z M 184.167969 86.867188 L 184.167969 88.804688 C 178.480469 88.832031 172.875 89.195312 167.460938 89.84375 C 168.039062 89.152344 168.660156 88.542969 169.308594 88.023438 C 174.160156 87.285156 179.128906 86.894531 184.167969 86.867188 Z M 96.695312 137.472656 C 98.097656 135.578125 99.714844 133.742188 101.550781 131.992188 C 100.320312 134.695312 99.265625 137.472656 98.371094 140.308594 C 95.742188 142.578125 93.476562 144.976562 91.585938 147.4375 C 93.117188 144.007812 94.820312 140.683594 96.695312 137.472656 Z M 82.789062 187.023438 C 82.976562 184.175781 83.640625 181.386719 84.769531 178.667969 C 85.144531 185.363281 86.285156 192.042969 88.117188 198.621094 C 86.242188 202.078125 85.128906 205.632812 84.78125 209.292969 C 83.453125 202.671875 82.761719 195.859375 82.761719 188.960938 C 82.761719 188.3125 82.773438 187.660156 82.789062 187.023438 Z M 81.027344 188.71875 C 81.027344 188.789062 81.042969 188.847656 81.070312 188.917969 C 81.070312 188.933594 81.054688 188.949219 81.054688 188.960938 C 81.054688 216.679688 91.84375 242.75 111.425781 262.359375 C 131.011719 281.964844 157.035156 292.75 184.734375 292.75 C 241.863281 292.75 288.351562 246.234375 288.410156 189.050781 C 288.453125 188.949219 288.480469 188.832031 288.480469 188.71875 C 288.480469 187.804688 288.421875 186.910156 288.335938 186.011719 C 287.601562 159.394531 276.929688 134.464844 258.039062 115.566406 C 238.457031 95.960938 212.433594 85.160156 184.734375 85.160156 C 157.046875 85.160156 131.011719 95.960938 111.425781 115.566406 C 92.421875 134.597656 81.734375 159.699219 81.128906 186.519531 C 81.054688 187.257812 81.027344 187.980469 81.027344 188.71875 " fill-opacity="1" fill-rule="nonzero"/><g clip-path="url(#8324957569)"><path fill="#ffffff" d="M 294.488281 209.175781 C 292.914062 209.308594 291.902344 210.363281 292.222656 211.519531 C 292.539062 212.691406 294.070312 213.527344 295.644531 213.398438 C 306.648438 212.472656 315.488281 210.8125 321.566406 208.441406 C 328.023438 205.921875 331.558594 202.570312 331.558594 198.390625 C 331.558594 189.714844 315.039062 179.652344 288.351562 170.410156 C 262.585938 161.488281 227.046875 153.046875 187.835938 147.21875 C 168.023438 144.285156 149.191406 142.289062 132.078125 141.1875 C 107.296875 139.597656 86.066406 139.917969 70.746094 142 C 54.484375 144.210938 44.5625 148.5625 43.539062 154.953125 C 43.480469 155.332031 43.449219 155.707031 43.449219 156.066406 C 43.449219 159.667969 46.136719 163.429688 51.105469 167.230469 C 55.886719 170.859375 62.847656 174.605469 71.597656 178.304688 C 73.042969 178.914062 74.789062 178.609375 75.496094 177.597656 C 76.203125 176.601562 75.613281 175.300781 74.167969 174.675781 C 65.949219 171.207031 59.464844 167.738281 55.148438 164.441406 C 51.335938 161.535156 49.269531 158.828125 49.269531 156.445312 C 49.269531 156.210938 49.300781 155.996094 49.328125 155.808594 C 50.050781 151.3125 58.414062 148.058594 72.261719 146.179688 C 87.050781 144.152344 107.757812 143.878906 132.078125 145.425781 C 149.003906 146.511719 167.632812 148.492188 187.171875 151.398438 C 225.90625 157.136719 260.941406 165.453125 286.257812 174.214844 C 310.632812 182.660156 325.726562 191.261719 325.726562 198.015625 C 325.726562 200.601562 323.167969 202.828125 318.492188 204.652344 C 312.988281 206.792969 304.800781 208.308594 294.488281 209.175781 " fill-opacity="1" fill-rule="nonzero"/></g><g clip-path="url(#c184493316)"><path fill="#ffffff" d="M 291.789062 82.789062 L 291.933594 82.789062 C 292.914062 95.730469 303.226562 106.066406 316.152344 107.035156 L 316.152344 107.195312 C 303.226562 108.164062 292.914062 118.503906 291.933594 131.445312 L 291.789062 131.445312 C 290.804688 118.503906 280.496094 108.164062 267.570312 107.195312 L 267.570312 107.035156 C 280.496094 106.066406 290.804688 95.730469 291.789062 82.789062 " fill-opacity="1" fill-rule="evenodd"/></g><path fill="#ffffff" d="M 316.542969 127.4375 L 316.613281 127.4375 C 317.019531 132.949219 321.40625 137.34375 326.894531 137.75 L 326.894531 137.820312 C 321.40625 138.226562 317.019531 142.621094 316.613281 148.117188 L 316.542969 148.117188 C 316.136719 142.621094 311.746094 138.226562 306.246094 137.820312 L 306.246094 137.75 C 311.746094 137.34375 316.136719 132.949219 316.542969 127.4375 " fill-opacity="1" fill-rule="evenodd"/><path stroke-linecap="butt" transform="matrix(0.747604, -0.0598981, 0.0598981, 0.747604, 105.819922, 149.914442)" fill="none" stroke-linejoin="miter" d="M 2.856517 55.002281 C 2.485827 54.998707 2.146718 54.861812 1.844383 54.592013 C 1.543296 54.306638 1.391736 53.980994 1.395727 53.605112 L 1.395339 11.611564 C 1.396633 11.204116 1.533528 10.865008 1.815991 10.600262 C 2.098454 10.335517 2.427626 10.205139 2.803924 10.203938 L 44.849388 10.20771 C 45.257252 10.203813 45.591585 10.3351 45.847195 10.601156 C 46.113188 10.868043 46.24315 11.202408 46.241439 11.615047 L 46.241209 22.247952 C 46.242826 22.619059 46.111954 22.9482 45.849011 23.230184 C 45.591675 23.507393 45.256895 23.642546 44.849446 23.641251 L 19.60219 23.640522 C 19.225892 23.641723 18.901911 23.772517 18.619449 24.037262 C 18.336986 24.302008 18.194899 24.6407 18.193605 25.048148 C 18.194806 25.424446 18.335567 25.75445 18.616303 26.032969 C 18.902647 26.306712 19.226181 26.442359 19.602063 26.44635 L 42.550414 26.445766 C 42.96347 26.442285 43.302994 26.573988 43.579371 26.841708 C 43.862187 27.094268 44.002532 27.429464 44.001237 27.836912 L 44.000515 37.367297 C 44.002132 37.738404 43.871261 38.067545 43.603126 38.349113 C 43.351397 38.621546 43.016201 38.761891 42.608753 38.760596 L 19.602877 38.761796 C 19.226579 38.762997 18.902599 38.893791 18.620136 39.158536 C 18.337673 39.423282 18.196003 39.756782 18.194292 40.169422 C 18.195909 40.540529 18.33667 40.870533 18.61699 41.154243 C 18.898143 41.42757 19.226868 41.563633 19.603166 41.562432 L 44.792898 41.563777 C 45.205538 41.565488 45.545062 41.697191 45.821855 41.959719 C 46.104671 42.212279 46.245016 42.547475 46.243721 42.954923 L 46.242243 53.603403 C 46.243444 53.979701 46.112573 54.308842 45.849629 54.590827 C 45.592709 54.862843 45.257929 54.997997 44.850065 55.001894 Z M 2.856517 55.002281 " stroke="#231f20" stroke-width="11.269819" stroke-opacity="1" stroke-miterlimit="4"/><path stroke-linecap="butt" transform="matrix(0.749461, -0.0284401, 0.0284401, 0.749461, 142.503218, 147.064385)" fill="none" stroke-linejoin="miter" d="M 2.80284 54.997497 C 2.427517 54.998891 2.099163 54.861341 1.817581 54.590051 C 1.536394 54.308353 1.392502 53.979743 1.396313 53.604618 L 1.394971 11.610819 C 1.394762 11.204269 1.537912 10.865704 1.819018 10.600131 C 2.099926 10.339762 2.428141 10.206279 2.803464 10.204885 L 26.367177 10.2078 C 28.572075 10.202865 30.533821 10.699487 32.24721 11.697468 C 33.966396 12.680033 35.32226 14.034505 36.304589 15.755285 C 37.297723 17.46605 37.79656 19.429086 37.79629 21.633787 L 37.797745 43.571497 C 37.797475 45.776198 37.300656 47.743148 36.307682 49.461939 C 35.32011 51.175723 33.970842 52.531784 32.244463 53.524325 C 30.534093 54.50705 28.571254 55.000682 26.366553 55.000413 Z M 19.599916 42.125185 C 20.011671 42.125174 20.345485 41.981479 20.601161 41.699304 C 20.862041 41.417327 20.994189 41.093981 20.997605 40.729265 L 20.998875 24.488464 C 20.998666 24.081914 20.865578 23.74329 20.599412 23.477798 C 20.343656 23.212701 20.0099 23.080158 19.60335 23.080366 C 19.228027 23.08176 18.899813 23.215243 18.618706 23.480817 C 18.337798 23.741185 18.194648 24.07975 18.194659 24.491505 L 18.193587 40.727101 C 18.195375 41.092015 18.334261 41.415222 18.61525 41.702125 C 18.901642 41.984021 19.229995 42.121572 19.599916 42.125185 Z M 19.599916 42.125185 " stroke="#231f20" stroke-width="11.269819" stroke-opacity="1" stroke-miterlimit="4"/><path stroke-linecap="butt" transform="matrix(0.75, 0.0000203193, -0.0000203193, 0.75, 172.83342, 145.93105)" fill="none" stroke-linejoin="miter" d="M 12.822555 54.99784 C 10.614222 54.9979 8.650667 54.50837 6.93189 53.524041 C 5.218321 52.529296 3.864118 51.175166 2.86928 49.461651 C 1.884858 47.742928 1.395222 45.779399 1.395162 43.571066 L 1.394567 21.633564 C 1.394508 19.425231 1.884038 17.466884 2.868367 15.753316 C 3.863112 14.034538 5.217242 12.680335 6.930757 11.695914 C 8.654688 10.701075 10.618217 10.20623 12.821342 10.20617 L 36.389052 10.205532 C 36.80051 10.205521 37.133847 10.33572 37.399479 10.601338 C 37.665111 10.866956 37.795329 11.205494 37.79534 11.611744 L 37.795672 23.872161 C 37.795682 24.247161 37.665483 24.585707 37.399866 24.887797 C 37.134249 25.179471 36.795711 25.325314 36.389461 25.325325 L 19.603002 25.325779 C 19.228002 25.32579 18.89988 25.456007 18.618638 25.721639 C 18.337395 25.976855 18.19157 26.310193 18.191582 26.732068 L 18.1919 38.487277 C 18.19191 38.862277 18.337752 39.190398 18.61901 39.47164 C 18.900267 39.742466 19.228396 39.883082 19.603396 39.883072 C 19.973188 39.883062 20.301309 39.742428 20.572135 39.471587 C 20.853378 39.19033 20.993994 38.862201 20.993984 38.487201 L 21.051034 29.57574 C 21.051023 29.164282 21.191638 28.820528 21.472881 28.549687 C 21.759332 28.26843 22.082245 28.127796 22.446828 28.127786 L 36.389537 28.127408 C 36.795787 28.127397 37.144749 28.257596 37.426006 28.523213 C 37.707263 28.778414 37.853106 29.111744 37.853117 29.517994 L 37.796476 53.549247 C 37.796486 53.91383 37.65587 54.247167 37.374628 54.549258 C 37.088178 54.851349 36.760057 55.0024 36.390265 55.00241 Z M 12.822555 54.99784 " stroke="#231f20" stroke-width="11.269819" stroke-opacity="1" stroke-miterlimit="4"/><path stroke-linecap="butt" transform="matrix(0.749459, 0.0284807, -0.0284807, 0.749459, 203.226759, 145.950298)" fill="none" stroke-linejoin="miter" d="M 2.855911 54.997491 C 2.480786 55.001322 2.147162 54.86285 1.844827 54.587674 C 1.542295 54.307293 1.394318 53.979343 1.395692 53.60402 L 1.39516 21.633061 C 1.394771 19.428361 1.888495 17.4707 2.870929 15.755072 C 3.863574 14.033843 5.219364 12.679298 6.928088 11.697035 C 8.65203 10.70377 10.618953 10.206844 12.823654 10.206455 L 26.36993 10.207672 C 28.57463 10.207283 30.532291 10.701007 32.248315 11.69385 C 33.969346 12.681291 35.323693 14.031876 36.306549 15.756213 C 37.299419 17.469746 37.795949 19.42626 37.796338 21.630961 L 37.797067 53.607124 C 37.795496 53.977242 37.662031 54.305464 37.401875 54.591591 C 37.135922 54.862303 36.797166 55.000266 36.390616 55.000079 L 22.442994 54.998479 C 22.078278 55.001914 21.749859 54.863244 21.447524 54.588068 C 21.144992 54.307688 20.997015 53.979737 20.998389 53.604414 L 20.99416 45.812496 C 20.994347 45.405945 20.866595 45.06159 20.60089 44.790234 C 20.345199 44.508074 20.011377 44.364397 19.599622 44.364408 C 19.229504 44.362837 18.90096 44.4952 18.619195 44.7613 C 18.337035 45.016991 18.193358 45.350813 18.193171 45.757363 L 18.194371 53.60673 C 18.192799 53.976848 18.059334 54.30507 17.799178 54.591197 C 17.543634 54.861513 17.210083 54.999278 16.798328 54.99929 Z M 19.599788 30.927626 C 20.011542 30.927615 20.344895 30.784644 20.600044 30.503919 C 20.865602 30.222799 20.993863 29.894775 20.995236 29.519452 L 20.997488 25.052603 C 20.997477 24.640848 20.864718 24.301895 20.599409 24.040948 C 20.344311 23.774401 20.010885 23.641133 19.604335 23.640947 C 19.22921 23.644778 18.900468 23.771937 18.618703 24.038037 C 18.336938 24.304137 18.193261 24.637959 18.193272 25.049714 L 18.196423 29.52157 C 18.194852 29.891688 18.337624 30.219836 18.619536 30.506213 C 18.90125 30.787384 19.229669 30.926054 19.599788 30.927626 Z M 19.599788 30.927626 " stroke="#231f20" stroke-width="11.269819" stroke-opacity="1" stroke-miterlimit="4"/><path stroke-linecap="butt" transform="matrix(0.747603, 0.0599184, -0.0599184, 0.747603, 233.662093, 147.063053)" fill="none" stroke-linejoin="miter" d="M 2.80128 54.998141 C 2.43059 55.001726 2.100582 54.860974 1.817696 54.591044 C 1.533562 54.30554 1.392298 53.977235 1.393905 53.606128 L 1.393155 11.612582 C 1.39185 11.205134 1.536961 10.864326 1.818938 10.601375 C 2.100915 10.338423 2.430053 10.207543 2.800743 10.203958 L 37.071878 10.205585 C 38.822328 10.206367 40.384686 10.598427 41.758952 11.381764 C 43.143601 12.164269 44.22842 13.247732 45.013407 14.632152 C 45.797978 16.01138 46.190081 17.578815 46.189715 19.334456 L 46.18667 25.489791 C 46.18795 27.135575 45.644678 28.506275 44.561216 29.591094 C 43.487304 30.664697 42.124861 31.202346 40.473886 31.204041 L 39.982539 31.201621 C 39.611432 31.200014 39.282711 31.336086 39.000734 31.599037 C 38.718757 31.861989 38.573229 32.197604 38.574951 32.610244 C 38.573344 32.98135 38.714608 33.309656 38.998742 33.59516 C 39.281628 33.86509 39.611636 34.005842 39.982326 34.002257 L 40.473673 34.004677 C 42.124648 34.002982 43.484966 34.547085 44.564592 35.630964 C 45.644219 36.714842 46.18706 38.076869 46.187923 39.717461 L 46.189118 53.553258 C 46.186679 53.913981 46.056727 54.248349 45.793237 54.546394 C 45.535356 54.849214 45.202691 55.001277 44.794827 54.997391 L 30.797255 55.001102 C 30.426149 54.999495 30.096557 54.863935 29.813255 54.588814 C 29.529537 54.308501 29.388273 53.980196 29.389464 53.603898 L 29.390029 40.441989 C 29.388723 40.034541 29.257427 39.700212 28.991364 39.444609 C 28.740045 39.177375 28.405677 39.047422 27.993037 39.049144 L 19.601513 39.047673 C 19.230407 39.046066 18.901685 39.182138 18.619708 39.44509 C 18.336899 39.697658 18.196563 40.032857 18.192677 40.440721 L 18.193143 53.550297 C 18.196312 53.915796 18.061168 54.250579 17.797678 54.548624 C 17.544988 54.851028 17.211907 54.9979 16.799268 54.999622 Z M 19.604197 26.172972 L 27.995305 26.169251 C 28.403169 26.173137 28.736666 26.031457 28.99102 25.74982 C 29.255758 25.46735 29.391318 25.137758 29.387317 24.761876 C 29.391203 24.354012 29.254715 24.020099 28.993845 23.76408 C 28.737749 23.502454 28.402966 23.36731 27.995518 23.368615 L 19.603993 23.367144 C 19.228112 23.371145 18.898974 23.502025 18.616997 23.764977 C 18.334604 24.022736 18.193852 24.352744 18.195573 24.765384 C 18.193966 25.13649 18.33523 25.464796 18.618948 25.745109 C 18.897891 26.031029 19.227899 26.171781 19.604197 26.172972 Z M 19.604197 26.172972 " stroke="#231f20" stroke-width="11.269819" stroke-opacity="1" stroke-miterlimit="4"/><g fill="#ffffff" fill-opacity="1"><g transform="translate(109.114319, 191.032676)"><g><path d="M 2.140625 -0.171875 C 1.859375 -0.148438 1.597656 -0.234375 1.359375 -0.421875 C 1.117188 -0.609375 0.988281 -0.84375 0.96875 -1.125 L -1.546875 -32.515625 C -1.578125 -32.828125 -1.492188 -33.085938 -1.296875 -33.296875 C -1.097656 -33.515625 -0.863281 -33.632812 -0.59375 -33.65625 L 30.84375 -36.171875 C 31.15625 -36.191406 31.414062 -36.113281 31.625 -35.9375 C 31.832031 -35.757812 31.953125 -35.515625 31.984375 -35.203125 L 32.609375 -27.25 C 32.640625 -26.976562 32.566406 -26.726562 32.390625 -26.5 C 32.210938 -26.269531 31.96875 -26.144531 31.65625 -26.125 L 12.78125 -24.609375 C 12.5 -24.585938 12.257812 -24.472656 12.0625 -24.265625 C 11.875 -24.054688 11.789062 -23.796875 11.8125 -23.484375 C 11.832031 -23.203125 11.957031 -22.96875 12.1875 -22.78125 C 12.414062 -22.59375 12.671875 -22.507812 12.953125 -22.53125 L 30.109375 -23.90625 C 30.410156 -23.925781 30.675781 -23.847656 30.90625 -23.671875 C 31.132812 -23.492188 31.257812 -23.253906 31.28125 -22.953125 L 31.84375 -15.828125 C 31.875 -15.546875 31.796875 -15.296875 31.609375 -15.078125 C 31.429688 -14.859375 31.191406 -14.734375 30.890625 -14.703125 L 13.6875 -13.328125 C 13.40625 -13.304688 13.164062 -13.1875 12.96875 -12.96875 C 12.78125 -12.757812 12.695312 -12.5 12.71875 -12.1875 C 12.738281 -11.90625 12.859375 -11.664062 13.078125 -11.46875 C 13.304688 -11.28125 13.5625 -11.195312 13.84375 -11.21875 L 32.671875 -12.734375 C 32.984375 -12.753906 33.253906 -12.671875 33.484375 -12.484375 C 33.710938 -12.304688 33.835938 -12.066406 33.859375 -11.765625 L 34.5 -3.8125 C 34.519531 -3.53125 34.441406 -3.273438 34.265625 -3.046875 C 34.085938 -2.828125 33.84375 -2.707031 33.53125 -2.6875 Z M 2.140625 -0.171875 "/></g></g></g><g fill="#ffffff" fill-opacity="1"><g transform="translate(144.067422, 188.284714)"><g><path d="M 2.09375 -0.078125 C 1.820312 -0.0664062 1.570312 -0.160156 1.34375 -0.359375 C 1.125 -0.566406 1.007812 -0.8125 1 -1.09375 L -0.1875 -32.5625 C -0.195312 -32.875 -0.101562 -33.128906 0.09375 -33.328125 C 0.300781 -33.523438 0.539062 -33.628906 0.8125 -33.640625 L 18.484375 -34.3125 C 20.140625 -34.375 21.625 -34.0625 22.9375 -33.375 C 24.257812 -32.6875 25.3125 -31.710938 26.09375 -30.453125 C 26.882812 -29.203125 27.3125 -27.75 27.375 -26.09375 L 28 -9.640625 C 28.0625 -7.992188 27.75 -6.507812 27.0625 -5.1875 C 26.375 -3.863281 25.398438 -2.804688 24.140625 -2.015625 C 22.878906 -1.234375 21.421875 -0.8125 19.765625 -0.75 Z M 14.328125 -10.21875 C 14.628906 -10.226562 14.875 -10.34375 15.0625 -10.5625 C 15.25 -10.78125 15.335938 -11.019531 15.328125 -11.28125 L 14.859375 -23.46875 C 14.847656 -23.78125 14.738281 -24.03125 14.53125 -24.21875 C 14.332031 -24.40625 14.082031 -24.492188 13.78125 -24.484375 C 13.5 -24.472656 13.253906 -24.363281 13.046875 -24.15625 C 12.847656 -23.957031 12.753906 -23.703125 12.765625 -23.390625 L 13.234375 -11.203125 C 13.242188 -10.941406 13.359375 -10.707031 13.578125 -10.5 C 13.796875 -10.300781 14.046875 -10.207031 14.328125 -10.21875 Z M 14.328125 -10.21875 "/></g></g></g><g fill="#ffffff" fill-opacity="1"><g transform="translate(172.832303, 187.181047)"><g><path d="M 9.625 0 C 7.96875 0 6.492188 -0.367188 5.203125 -1.109375 C 3.921875 -1.847656 2.90625 -2.863281 2.15625 -4.15625 C 1.414062 -5.445312 1.046875 -6.914062 1.046875 -8.5625 L 1.046875 -25.03125 C 1.046875 -26.6875 1.414062 -28.15625 2.15625 -29.4375 C 2.90625 -30.726562 3.921875 -31.742188 5.203125 -32.484375 C 6.492188 -33.222656 7.96875 -33.59375 9.625 -33.59375 L 27.296875 -33.59375 C 27.609375 -33.59375 27.859375 -33.492188 28.046875 -33.296875 C 28.242188 -33.109375 28.34375 -32.859375 28.34375 -32.546875 L 28.34375 -23.359375 C 28.34375 -23.078125 28.242188 -22.820312 28.046875 -22.59375 C 27.859375 -22.375 27.609375 -22.265625 27.296875 -22.265625 L 14.703125 -22.265625 C 14.421875 -22.265625 14.175781 -22.164062 13.96875 -21.96875 C 13.757812 -21.769531 13.65625 -21.515625 13.65625 -21.203125 L 13.65625 -12.390625 C 13.65625 -12.109375 13.757812 -11.863281 13.96875 -11.65625 C 14.175781 -11.445312 14.421875 -11.34375 14.703125 -11.34375 C 14.984375 -11.34375 15.226562 -11.445312 15.4375 -11.65625 C 15.644531 -11.863281 15.75 -12.109375 15.75 -12.390625 L 15.796875 -19.0625 C 15.796875 -19.375 15.898438 -19.632812 16.109375 -19.84375 C 16.316406 -20.050781 16.5625 -20.15625 16.84375 -20.15625 L 27.296875 -20.15625 C 27.609375 -20.15625 27.867188 -20.054688 28.078125 -19.859375 C 28.285156 -19.671875 28.390625 -19.421875 28.390625 -19.109375 L 28.34375 -1.09375 C 28.34375 -0.8125 28.238281 -0.554688 28.03125 -0.328125 C 27.820312 -0.109375 27.578125 0 27.296875 0 Z M 9.625 0 "/></g></g></g><g fill="#ffffff" fill-opacity="1"><g transform="translate(201.660322, 187.170542)"><g><path d="M 2.140625 0.078125 C 1.859375 0.0664062 1.609375 -0.0390625 1.390625 -0.25 C 1.179688 -0.46875 1.082031 -0.71875 1.09375 -1 L 2 -24.96875 C 2.0625 -26.625 2.488281 -28.082031 3.28125 -29.34375 C 4.070312 -30.601562 5.125 -31.578125 6.4375 -32.265625 C 7.757812 -32.953125 9.25 -33.265625 10.90625 -33.203125 L 21.046875 -32.8125 C 22.703125 -32.75 24.15625 -32.328125 25.40625 -31.546875 C 26.664062 -30.765625 27.640625 -29.710938 28.328125 -28.390625 C 29.023438 -27.078125 29.34375 -25.59375 29.28125 -23.9375 L 28.375 0.03125 C 28.363281 0.3125 28.253906 0.550781 28.046875 0.75 C 27.847656 0.945312 27.59375 1.039062 27.28125 1.03125 L 16.828125 0.640625 C 16.546875 0.628906 16.296875 0.515625 16.078125 0.296875 C 15.867188 0.078125 15.769531 -0.171875 15.78125 -0.453125 L 16 -6.296875 C 16.007812 -6.597656 15.914062 -6.859375 15.71875 -7.078125 C 15.53125 -7.296875 15.285156 -7.410156 14.984375 -7.421875 C 14.703125 -7.429688 14.453125 -7.34375 14.234375 -7.15625 C 14.023438 -6.96875 13.914062 -6.722656 13.90625 -6.421875 L 13.6875 -0.53125 C 13.675781 -0.25 13.566406 -0.0078125 13.359375 0.1875 C 13.148438 0.394531 12.890625 0.492188 12.578125 0.484375 Z M 15.375 -17.484375 C 15.675781 -17.472656 15.925781 -17.566406 16.125 -17.765625 C 16.332031 -17.972656 16.441406 -18.21875 16.453125 -18.5 L 16.59375 -21.859375 C 16.601562 -22.171875 16.507812 -22.425781 16.3125 -22.625 C 16.125 -22.820312 15.878906 -22.925781 15.578125 -22.9375 C 15.296875 -22.945312 15.046875 -22.859375 14.828125 -22.671875 C 14.617188 -22.492188 14.507812 -22.25 14.5 -21.9375 L 14.359375 -18.578125 C 14.347656 -18.296875 14.441406 -18.046875 14.640625 -17.828125 C 14.847656 -17.609375 15.09375 -17.492188 15.375 -17.484375 Z M 15.375 -17.484375 "/></g></g></g><g fill="#ffffff" fill-opacity="1"><g transform="translate(230.366582, 188.181198)"><g><path d="M 2.09375 0.171875 C 1.820312 0.148438 1.585938 0.0234375 1.390625 -0.203125 C 1.191406 -0.429688 1.101562 -0.6875 1.125 -0.96875 L 3.640625 -32.359375 C 3.671875 -32.671875 3.800781 -32.910156 4.03125 -33.078125 C 4.257812 -33.253906 4.507812 -33.332031 4.78125 -33.3125 L 30.390625 -31.265625 C 31.710938 -31.160156 32.863281 -30.773438 33.84375 -30.109375 C 34.832031 -29.441406 35.578125 -28.566406 36.078125 -27.484375 C 36.585938 -26.410156 36.789062 -25.21875 36.6875 -23.90625 L 36.3125 -19.296875 C 36.21875 -18.066406 35.726562 -17.078125 34.84375 -16.328125 C 33.96875 -15.578125 32.914062 -15.253906 31.6875 -15.359375 L 31.3125 -15.390625 C 31.03125 -15.410156 30.773438 -15.332031 30.546875 -15.15625 C 30.328125 -14.976562 30.207031 -14.738281 30.1875 -14.4375 C 30.164062 -14.15625 30.25 -13.898438 30.4375 -13.671875 C 30.632812 -13.453125 30.875 -13.332031 31.15625 -13.3125 L 31.53125 -13.28125 C 32.757812 -13.175781 33.742188 -12.6875 34.484375 -11.8125 C 35.234375 -10.9375 35.5625 -9.890625 35.46875 -8.671875 L 34.640625 1.671875 C 34.609375 1.953125 34.484375 2.195312 34.265625 2.40625 C 34.054688 2.613281 33.796875 2.707031 33.484375 2.6875 L 23.015625 1.84375 C 22.742188 1.820312 22.507812 1.695312 22.3125 1.46875 C 22.113281 1.25 22.023438 1 22.046875 0.71875 L 22.84375 -9.125 C 22.863281 -9.425781 22.785156 -9.679688 22.609375 -9.890625 C 22.441406 -10.109375 22.203125 -10.234375 21.890625 -10.265625 L 15.609375 -10.765625 C 15.328125 -10.785156 15.070312 -10.703125 14.84375 -10.515625 C 14.625 -10.335938 14.503906 -10.097656 14.484375 -9.796875 L 13.703125 0 C 13.671875 0.28125 13.546875 0.523438 13.328125 0.734375 C 13.117188 0.941406 12.859375 1.03125 12.546875 1 Z M 16.390625 -20.390625 L 22.671875 -19.890625 C 22.984375 -19.859375 23.238281 -19.9375 23.4375 -20.125 C 23.644531 -20.320312 23.757812 -20.5625 23.78125 -20.84375 C 23.800781 -21.144531 23.722656 -21.398438 23.546875 -21.609375 C 23.378906 -21.828125 23.140625 -21.953125 22.828125 -21.984375 L 16.546875 -22.484375 C 16.265625 -22.503906 16.007812 -22.421875 15.78125 -22.234375 C 15.5625 -22.054688 15.441406 -21.816406 15.421875 -21.515625 C 15.398438 -21.234375 15.484375 -20.976562 15.671875 -20.75 C 15.867188 -20.53125 16.109375 -20.410156 16.390625 -20.390625 Z M 16.390625 -20.390625 "/></g></g></g><path stroke-linecap="butt" transform="matrix(1.070219, -0.133152, 0.133152, 1.070219, 93.457726, 194.666824)" fill="none" stroke-linejoin="miter" d="M 7.40746 13.241267 C 5.888971 13.24214 4.668245 13.079313 3.741689 12.752337 C 2.814685 12.428956 2.107745 11.979656 1.624015 11.408479 C 1.139839 10.840896 0.816445 10.183819 0.650239 9.436799 L 5.639691 9.437075 C 6.011532 9.968781 6.598865 10.235302 7.40573 10.233491 C 8.212148 10.235273 8.803667 9.969422 9.172651 9.438637 C 9.204966 9.384258 9.217968 9.338426 9.219293 9.298442 C 9.218762 9.156027 9.030913 9.052357 8.660234 8.980689 C 8.289556 8.909021 7.730201 8.857678 6.993847 8.820813 C 6.061164 8.777772 5.08038 8.681296 4.055983 8.524645 C 1.767712 8.170599 0.626519 7.251176 0.625215 5.765483 C 0.626043 5.641488 0.631806 5.507157 0.649246 5.366978 C 0.815042 4.621116 1.141275 3.964563 1.624796 3.393279 C 2.107871 2.825589 2.813396 2.376825 3.740924 2.05058 C 4.668453 1.724335 5.889441 1.562349 7.40793 1.561476 C 8.922378 1.563749 10.143104 1.726577 11.070108 2.049958 C 11.996664 2.376934 12.704051 2.82264 13.187781 3.393817 C 13.67151 3.964994 13.998498 4.622518 14.165151 5.365943 L 9.171658 5.368815 C 8.803411 4.837556 8.212484 4.570588 7.406066 4.568805 C 6.599201 4.570617 6.011276 4.836915 5.642292 5.367701 C 5.61536 5.408149 5.603252 5.446792 5.602375 5.483183 C 5.6011 5.610772 5.779508 5.702318 6.137151 5.761415 C 6.494794 5.820511 7.021352 5.871423 7.713233 5.913705 C 8.408708 5.956433 9.152267 6.023394 9.936275 6.117288 C 10.723877 6.211628 11.459404 6.372488 12.146002 6.60391 C 12.828559 6.838479 13.362922 7.178709 13.75179 7.632235 C 14.051198 7.983382 14.204199 8.425812 14.20316 8.962226 C 14.202797 9.111829 14.190309 9.270873 14.162103 9.438912 C 13.996754 10.18118 13.670074 10.841327 13.187 11.409017 C 12.703478 11.980301 11.997953 12.429065 11.070424 12.75531 C 10.143343 13.077961 8.921908 13.243541 7.40746 13.241267 Z M 7.40746 13.241267 " stroke="#231f20" stroke-width="1.9" stroke-opacity="1" stroke-miterlimit="4"/><path stroke-linecap="butt" transform="matrix(1.073375, -0.104708, 0.104708, 1.073375, 109.59779, 192.633165)" fill="none" stroke-linejoin="miter" d="M 18.827363 13.001412 L 14.063867 12.998914 L 13.00919 11.163761 L 5.938022 11.16542 L 4.882154 12.998485 L 0.118307 12.999591 L 7.288797 1.795182 L 11.65584 1.795399 Z M 11.419921 8.392128 L 9.477013 4.992804 L 7.522484 8.390411 Z M 11.419921 8.392128 " stroke="#231f20" stroke-width="1.9" stroke-opacity="1" stroke-miterlimit="4"/><path stroke-linecap="butt" transform="matrix(1.076027, -0.0725506, 0.0725506, 1.076027, 130.243122, 190.622229)" fill="none" stroke-linejoin="miter" d="M 17.88379 12.999437 L 12.289548 12.999794 L 5.954377 5.413793 L 5.954676 13.001038 L 1.249963 12.999657 L 1.250711 1.789492 L 6.844953 1.789135 L 13.17919 9.33514 L 13.179825 1.787891 L 17.884537 1.789272 Z M 17.88379 12.999437 " stroke="#231f20" stroke-width="1.9" stroke-opacity="1" stroke-miterlimit="4"/><path stroke-linecap="butt" transform="matrix(1.077566, -0.0441587, 0.0441587, 1.077566, 151.10579, 189.252482)" fill="none" stroke-linejoin="miter" d="M 9.562727 13.001189 L 4.861037 13.000642 L 4.858871 4.561395 L 0.468858 4.562746 L 0.470124 1.789621 L 13.95184 1.787466 L 13.954193 4.56074 L 9.56418 4.56209 Z M 9.562727 13.001189 " stroke="#231f20" stroke-width="1.9" stroke-opacity="1" stroke-miterlimit="4"/><path stroke-linecap="butt" transform="matrix(1.078353, -0.0158949, 0.0158949, 1.078353, 166.917606, 188.57615)" fill="none" stroke-linejoin="miter" d="M 18.826409 13.001275 L 14.062946 12.999888 L 13.006929 11.162245 L 5.935951 11.163069 L 4.883749 12.998616 L 0.116611 13.000797 L 7.287513 1.797298 L 11.656165 1.796488 Z M 11.421333 8.389455 L 9.475458 4.991921 L 7.5236 8.389961 Z M 11.421333 8.389455 " stroke="#231f20" stroke-width="1.9" stroke-opacity="1" stroke-miterlimit="4"/><path stroke-linecap="butt" transform="matrix(1.078279, 0.0203365, -0.0203365, 1.078279, 187.697205, 188.231575)" fill="none" stroke-linejoin="miter" d="M 22.562691 12.999059 L 17.860495 13.0008 L 17.859731 5.853282 L 13.654566 13.000425 L 10.147838 13.001355 L 5.952008 5.853259 L 5.952773 13.000776 L 1.250509 12.998894 L 1.249229 1.790372 L 6.835384 1.790074 L 11.90601 9.798358 L 16.967945 1.787351 L 22.561411 1.790537 Z M 22.562691 12.999059 " stroke="#231f20" stroke-width="1.9" stroke-opacity="1" stroke-miterlimit="4"/><path stroke-linecap="butt" transform="matrix(1.076987, 0.056545, -0.056545, 1.076987, 213.721704, 188.772146)" fill="none" stroke-linejoin="miter" d="M 18.8293 12.99838 L 14.063399 12.99834 L 13.009558 11.163994 L 5.936948 11.165371 L 4.883589 13.001541 L 0.117687 13.001501 L 7.287679 1.798411 L 11.654566 1.797639 Z M 11.420328 8.389344 L 9.475568 4.991379 L 7.524986 8.390748 Z M 11.420328 8.389344 " stroke="#231f20" stroke-width="1.9" stroke-opacity="1" stroke-miterlimit="4"/><path stroke-linecap="butt" transform="matrix(1.074949, 0.0870886, -0.0870886, 1.074949, 234.418979, 189.876417)" fill="none" stroke-linejoin="miter" d="M 16.55451 13.000477 L 12.11028 13.000777 C 11.905787 12.719365 11.764037 12.360192 11.681421 11.92355 C 11.606702 11.584383 11.496174 11.251752 11.349836 10.925655 C 11.207109 10.599266 10.952657 10.329169 10.597312 10.114487 C 10.241675 9.896195 9.71284 9.782782 9.006611 9.76732 L 5.953863 9.763904 L 5.954533 13.001651 L 1.248615 13.001349 L 1.248846 1.790764 L 8.898037 1.788815 C 10.725959 1.789713 12.201343 1.924555 13.324774 2.200562 C 14.447913 2.472959 15.263884 2.901062 15.7802 3.487895 C 16.296515 4.074729 16.554643 4.838738 16.554583 5.779921 C 16.553068 6.568599 16.377688 7.229641 16.017904 7.767535 C 15.661438 8.301526 15.099784 8.724954 14.329332 9.038113 C 15.073692 9.34483 15.554408 9.716515 15.778114 10.14536 C 15.99821 10.574498 16.134586 11.046757 16.187242 11.562138 C 16.238828 12.019463 16.361348 12.500113 16.55451 13.000477 Z M 5.951503 6.998701 L 8.640015 6.991654 C 9.392298 6.992482 9.98193 6.959248 10.412522 6.891658 C 10.846723 6.823775 11.166084 6.728858 11.371189 6.614126 C 11.576001 6.495784 11.707147 6.36524 11.764626 6.222495 C 11.822105 6.079751 11.850118 5.932125 11.852567 5.782937 C 11.851113 5.630431 11.824388 5.479973 11.765463 5.335757 C 11.710149 5.191249 11.575995 5.060396 11.370223 4.942612 C 11.16445 4.824829 10.847931 4.730554 10.413738 4.663982 C 9.983155 4.597117 9.391576 4.561465 8.639585 4.564247 L 5.954099 4.563782 Z M 5.951503 6.998701 " stroke="#231f20" stroke-width="1.9" stroke-opacity="1" stroke-miterlimit="4"/><path stroke-linecap="butt" transform="matrix(1.073083, 0.107666, -0.107666, 1.073083, 253.079431, 191.442175)" fill="none" stroke-linejoin="miter" d="M 1.248479 1.788772 L 5.951768 1.790103 L 5.951503 12.998346 L 1.248575 13.000619 Z M 1.248479 1.788772 " stroke="#231f20" stroke-width="1.9" stroke-opacity="1" stroke-miterlimit="4"/><path stroke-linecap="butt" transform="matrix(1.070644, 0.129689, -0.129689, 1.070644, 261.027938, 192.176003)" fill="none" stroke-linejoin="miter" d="M 18.827824 12.999073 L 14.062964 12.999786 L 13.008804 11.164584 L 5.937896 11.163699 L 4.883228 12.998953 L 0.118369 12.999667 L 7.288116 1.798618 L 11.655377 1.798636 Z M 11.421353 8.390642 L 9.477324 4.992216 L 7.524912 8.391969 Z M 11.421353 8.390642 " stroke="#231f20" stroke-width="1.9" stroke-opacity="1" stroke-miterlimit="4"/><g fill="#ffffff" fill-opacity="1"><g transform="translate(95.188706, 208.579674)"><g><path d="M 7.953125 -0.71875 C 6.328125 -0.519531 5 -0.535156 3.96875 -0.765625 C 2.9375 -0.992188 2.125 -1.378906 1.53125 -1.921875 C 0.9375 -2.472656 0.503906 -3.132812 0.234375 -3.90625 L 5.5625 -4.5625 C 6.019531 -4.050781 6.679688 -3.847656 7.546875 -3.953125 C 8.410156 -4.054688 9.007812 -4.414062 9.34375 -5.03125 C 9.363281 -5.09375 9.367188 -5.148438 9.359375 -5.203125 C 9.347656 -5.347656 9.140625 -5.429688 8.734375 -5.453125 C 8.328125 -5.484375 7.71875 -5.46875 6.90625 -5.40625 C 5.914062 -5.332031 4.863281 -5.3125 3.75 -5.34375 C 1.25 -5.40625 -0.0976562 -6.226562 -0.296875 -7.8125 C -0.304688 -7.945312 -0.3125 -8.097656 -0.3125 -8.265625 C -0.238281 -9.078125 0.015625 -9.816406 0.453125 -10.484375 C 0.898438 -11.160156 1.597656 -11.734375 2.546875 -12.203125 C 3.492188 -12.679688 4.78125 -13.019531 6.40625 -13.21875 C 8.03125 -13.414062 9.359375 -13.398438 10.390625 -13.171875 C 11.421875 -12.953125 12.234375 -12.570312 12.828125 -12.03125 C 13.421875 -11.488281 13.859375 -10.832031 14.140625 -10.0625 L 8.796875 -9.390625 C 8.328125 -9.910156 7.660156 -10.117188 6.796875 -10.015625 C 5.929688 -9.910156 5.335938 -9.546875 5.015625 -8.921875 C 5.003906 -8.867188 5 -8.828125 5 -8.796875 C 5.019531 -8.660156 5.21875 -8.582031 5.59375 -8.5625 C 5.976562 -8.539062 6.546875 -8.554688 7.296875 -8.609375 C 8.046875 -8.660156 8.847656 -8.6875 9.703125 -8.6875 C 10.566406 -8.6875 11.378906 -8.609375 12.140625 -8.453125 C 12.910156 -8.296875 13.53125 -8 14 -7.5625 C 14.363281 -7.226562 14.582031 -6.78125 14.65625 -6.21875 C 14.675781 -6.050781 14.6875 -5.878906 14.6875 -5.703125 C 14.601562 -4.890625 14.335938 -4.144531 13.890625 -3.46875 C 13.453125 -2.789062 12.757812 -2.210938 11.8125 -1.734375 C 10.863281 -1.253906 9.578125 -0.914062 7.953125 -0.71875 Z M 7.953125 -0.71875 "/></g></g></g><g fill="#ffffff" fill-opacity="1"><g transform="translate(110.958993, 206.587045)"><g><path d="M 20.203125 -1.96875 L 15.078125 -1.46875 L 13.78125 -3.328125 L 6.1875 -2.59375 L 5.234375 -0.515625 L 0.125 -0.015625 L 6.65625 -12.78125 L 11.328125 -13.234375 Z M 11.765625 -6.125 L 9.328125 -9.578125 L 7.59375 -5.71875 Z M 11.765625 -6.125 "/></g></g></g><g fill="#ffffff" fill-opacity="1"><g transform="translate(131.18628, 204.610586)"><g><path d="M 19.234375 -1.296875 L 13.21875 -0.890625 L 5.859375 -8.59375 L 6.40625 -0.4375 L 1.34375 -0.09375 L 0.53125 -12.15625 L 6.546875 -12.5625 L 13.90625 -4.890625 L 13.359375 -13.015625 L 18.421875 -13.359375 Z M 19.234375 -1.296875 "/></g></g></g><g fill="#ffffff" fill-opacity="1"><g transform="translate(151.679853, 203.26084)"><g><path d="M 10.296875 -0.421875 L 5.234375 -0.21875 L 4.859375 -9.3125 L 0.125 -9.109375 L 0 -12.09375 L 14.53125 -12.6875 L 14.65625 -9.703125 L 9.921875 -9.515625 Z M 10.296875 -0.421875 "/></g></g></g><g fill="#ffffff" fill-opacity="1"><g transform="translate(167.124239, 202.594744)"><g><path d="M 20.296875 -0.296875 L 15.15625 -0.21875 L 14 -2.1875 L 6.375 -2.078125 L 5.265625 -0.078125 L 0.125 0 L 7.6875 -12.1875 L 12.390625 -12.265625 Z M 12.234375 -5.15625 L 10.09375 -8.796875 L 8.03125 -5.09375 Z M 12.234375 -5.15625 "/></g></g></g><g fill="#ffffff" fill-opacity="1"><g transform="translate(187.43283, 202.249199)"><g><path d="M 24.328125 0.453125 L 19.25 0.359375 L 19.390625 -7.34375 L 14.71875 0.28125 L 10.9375 0.203125 L 6.5625 -7.578125 L 6.421875 0.125 L 1.34375 0.03125 L 1.578125 -12.0625 L 7.609375 -11.953125 L 12.90625 -3.21875 L 18.53125 -11.75 L 24.5625 -11.640625 Z M 24.328125 0.453125 "/></g></g></g><g fill="#ffffff" fill-opacity="1"><g transform="translate(212.986619, 202.772979)"><g><path d="M 20.265625 1.0625 L 15.140625 0.796875 L 14.125 -1.25 L 6.5 -1.65625 L 5.265625 0.28125 L 0.125 0 L 8.484375 -11.65625 L 13.1875 -11.40625 Z M 12.5625 -4.328125 L 10.65625 -8.09375 L 8.359375 -4.546875 Z M 12.5625 -4.328125 "/></g></g></g><g fill="#ffffff" fill-opacity="1"><g transform="translate(233.286827, 203.850748)"><g><path d="M 17.78125 1.4375 L 13.015625 1.0625 C 12.816406 0.738281 12.691406 0.335938 12.640625 -0.140625 C 12.585938 -0.515625 12.492188 -0.878906 12.359375 -1.234375 C 12.234375 -1.597656 11.988281 -1.910156 11.625 -2.171875 C 11.269531 -2.441406 10.71875 -2.613281 9.96875 -2.6875 L 6.6875 -2.953125 L 6.40625 0.515625 L 1.34375 0.109375 L 2.328125 -11.9375 L 10.546875 -11.265625 C 12.503906 -11.109375 14.078125 -10.832031 15.265625 -10.4375 C 16.453125 -10.050781 17.289062 -9.519531 17.78125 -8.84375 C 18.28125 -8.175781 18.488281 -7.332031 18.40625 -6.3125 C 18.34375 -5.476562 18.09375 -4.785156 17.65625 -4.234375 C 17.226562 -3.691406 16.59375 -3.28125 15.75 -3 C 16.53125 -2.613281 17.015625 -2.175781 17.203125 -1.6875 C 17.398438 -1.207031 17.503906 -0.691406 17.515625 -0.140625 C 17.523438 0.359375 17.613281 0.882812 17.78125 1.4375 Z M 6.921875 -5.9375 L 9.8125 -5.71875 C 10.625 -5.65625 11.257812 -5.640625 11.71875 -5.671875 C 12.1875 -5.703125 12.535156 -5.769531 12.765625 -5.875 C 13.003906 -5.988281 13.160156 -6.113281 13.234375 -6.25 C 13.304688 -6.394531 13.347656 -6.550781 13.359375 -6.71875 C 13.378906 -6.882812 13.363281 -7.046875 13.3125 -7.203125 C 13.257812 -7.367188 13.125 -7.519531 12.90625 -7.65625 C 12.695312 -7.800781 12.363281 -7.929688 11.90625 -8.046875 C 11.457031 -8.160156 10.828125 -8.25 10.015625 -8.3125 L 7.140625 -8.546875 Z M 6.921875 -5.9375 "/></g></g></g><g fill="#ffffff" fill-opacity="1"><g transform="translate(251.679773, 205.392251)"><g><path d="M 6.390625 0.640625 L 1.34375 0.140625 L 2.546875 -11.890625 L 7.59375 -11.390625 Z M 6.390625 0.640625 "/></g></g></g><g fill="#ffffff" fill-opacity="1"><g transform="translate(259.341976, 206.09438)"><g><path d="M 20.15625 2.4375 L 15.046875 1.828125 L 14.15625 -0.28125 L 6.59375 -1.203125 L 5.234375 0.640625 L 0.125 0.015625 L 9.25 -11.046875 L 13.921875 -10.46875 Z M 12.8125 -3.453125 L 11.171875 -7.34375 L 8.640625 -3.96875 Z M 12.8125 -3.453125 "/></g></g></g></svg>